<svg xmlns="http://www.w3.org/2000/svg" viewBox="0 0 128 128" fill="none">
  <path d="M18 34c0-9.4 7.6-17 17-17h58c9.4 0 17 7.6 17 17v60c0 9.4-7.6 17-17 17H35c-9.4 0-17-7.6-17-17V34Z" stroke="currentColor" stroke-width="8"/>
  <path d="M35 26 92 102H35V26Z" fill="currentColor" opacity=".14"/>
  <path d="M44 38c0 0 11 17 24 17 15 0 25-14 25-29v-1M84 90c0 0-11-17-24-17-15 0-25 14-25 29v1" stroke="currentColor" stroke-width="8" stroke-linecap="round"/>
  <circle cx="64" cy="64" r="14" stroke="currentColor" stroke-width="8"/>
</svg>
